<mxfile host="65bd71144e">
    <diagram id="C5RBs43oDa-KdzZeNtuy" name="Page-1">
        <mxGraphModel dx="2532" dy="668" grid="1" gridSize="10" guides="1" tooltips="1" connect="1" arrows="1" fold="1" page="1" pageScale="1" pageWidth="827" pageHeight="1169" math="0" shadow="0">
            <root>
                <mxCell id="WIyWlLk6GJQsqaUBKTNV-0"/>
                <mxCell id="WIyWlLk6GJQsqaUBKTNV-1" parent="WIyWlLk6GJQsqaUBKTNV-0"/>
                <mxCell id="M7CGMbNuYNeq0SnUNNgH-6" value="ทบทวนสัญลักษณ์" style="swimlane;fontFamily=Sarabun;fontSource=https%3A%2F%2Ffonts.googleapis.com%2Fcss%3Ffamily%3DSarabun;" parent="WIyWlLk6GJQsqaUBKTNV-1" vertex="1">
                    <mxGeometry x="-720" y="20" width="650" height="290" as="geometry"/>
                </mxCell>
                <mxCell id="M7CGMbNuYNeq0SnUNNgH-2" value="&lt;font data-font-src=&quot;https://fonts.googleapis.com/css?family=Sarabun&quot; face=&quot;Sarabun&quot;&gt;เริ่มต้น&lt;/font&gt;" style="ellipse;whiteSpace=wrap;html=1;" parent="M7CGMbNuYNeq0SnUNNgH-6" vertex="1">
                    <mxGeometry x="20" y="40" width="130" height="30" as="geometry"/>
                </mxCell>
                <mxCell id="M7CGMbNuYNeq0SnUNNgH-5" value="" style="endArrow=classic;html=1;rounded=0;" parent="M7CGMbNuYNeq0SnUNNgH-6" edge="1">
                    <mxGeometry width="50" height="50" relative="1" as="geometry">
                        <mxPoint x="84.5" y="70" as="sourcePoint"/>
                        <mxPoint x="84.5" y="120" as="targetPoint"/>
                    </mxGeometry>
                </mxCell>
                <mxCell id="M7CGMbNuYNeq0SnUNNgH-3" value="&lt;font face=&quot;Sarabun&quot;&gt;สิ้นสุด&lt;/font&gt;" style="ellipse;whiteSpace=wrap;html=1;" parent="M7CGMbNuYNeq0SnUNNgH-6" vertex="1">
                    <mxGeometry x="150" y="90" width="130" height="30" as="geometry"/>
                </mxCell>
                <mxCell id="M7CGMbNuYNeq0SnUNNgH-4" value="" style="endArrow=classic;html=1;rounded=0;" parent="M7CGMbNuYNeq0SnUNNgH-6" edge="1">
                    <mxGeometry width="50" height="50" relative="1" as="geometry">
                        <mxPoint x="214.5" y="40" as="sourcePoint"/>
                        <mxPoint x="214.5" y="90" as="targetPoint"/>
                    </mxGeometry>
                </mxCell>
                <mxCell id="mvioNwK95yMqdUQ73LqQ-0" value="กระบวนการ" style="rounded=0;whiteSpace=wrap;html=1;fontFamily=Sarabun;fontSource=https%3A%2F%2Ffonts.googleapis.com%2Fcss%3Ffamily%3DSarabun;" parent="M7CGMbNuYNeq0SnUNNgH-6" vertex="1">
                    <mxGeometry x="320" y="70" width="120" height="30" as="geometry"/>
                </mxCell>
                <mxCell id="mvioNwK95yMqdUQ73LqQ-1" value="" style="endArrow=classic;html=1;rounded=0;" parent="M7CGMbNuYNeq0SnUNNgH-6" edge="1">
                    <mxGeometry width="50" height="50" relative="1" as="geometry">
                        <mxPoint x="379" y="40" as="sourcePoint"/>
                        <mxPoint x="379.5" y="70" as="targetPoint"/>
                    </mxGeometry>
                </mxCell>
                <mxCell id="mvioNwK95yMqdUQ73LqQ-2" value="" style="endArrow=classic;html=1;rounded=0;" parent="M7CGMbNuYNeq0SnUNNgH-6" edge="1">
                    <mxGeometry width="50" height="50" relative="1" as="geometry">
                        <mxPoint x="379.75" y="100" as="sourcePoint"/>
                        <mxPoint x="380.25" y="130" as="targetPoint"/>
                    </mxGeometry>
                </mxCell>
                <mxCell id="mvioNwK95yMqdUQ73LqQ-3" value="ประโยคเงื่อนไข" style="rhombus;whiteSpace=wrap;html=1;fontFamily=Sarabun;fontSource=https%3A%2F%2Ffonts.googleapis.com%2Fcss%3Ffamily%3DSarabun;" parent="M7CGMbNuYNeq0SnUNNgH-6" vertex="1">
                    <mxGeometry x="490" y="60" width="100" height="60" as="geometry"/>
                </mxCell>
                <mxCell id="mvioNwK95yMqdUQ73LqQ-4" value="" style="endArrow=classic;html=1;rounded=0;" parent="M7CGMbNuYNeq0SnUNNgH-6" edge="1">
                    <mxGeometry width="50" height="50" relative="1" as="geometry">
                        <mxPoint x="539.71" y="30" as="sourcePoint"/>
                        <mxPoint x="540.21" y="60" as="targetPoint"/>
                    </mxGeometry>
                </mxCell>
                <mxCell id="mvioNwK95yMqdUQ73LqQ-5" value="" style="endArrow=classic;html=1;rounded=0;" parent="M7CGMbNuYNeq0SnUNNgH-6" edge="1">
                    <mxGeometry width="50" height="50" relative="1" as="geometry">
                        <mxPoint x="539.71" y="120" as="sourcePoint"/>
                        <mxPoint x="540" y="175" as="targetPoint"/>
                    </mxGeometry>
                </mxCell>
                <mxCell id="mvioNwK95yMqdUQ73LqQ-7" value="จริง" style="edgeLabel;html=1;align=center;verticalAlign=middle;resizable=0;points=[];fontFamily=Sarabun;fontSource=https%3A%2F%2Ffonts.googleapis.com%2Fcss%3Ffamily%3DSarabun;" parent="mvioNwK95yMqdUQ73LqQ-5" vertex="1" connectable="0">
                    <mxGeometry x="-0.4142" y="-1" relative="1" as="geometry">
                        <mxPoint as="offset"/>
                    </mxGeometry>
                </mxCell>
                <mxCell id="mvioNwK95yMqdUQ73LqQ-6" value="" style="endArrow=classic;html=1;rounded=0;exitX=1;exitY=0.5;exitDx=0;exitDy=0;" parent="M7CGMbNuYNeq0SnUNNgH-6" source="mvioNwK95yMqdUQ73LqQ-3" edge="1">
                    <mxGeometry width="50" height="50" relative="1" as="geometry">
                        <mxPoint x="620" y="95" as="sourcePoint"/>
                        <mxPoint x="610" y="175" as="targetPoint"/>
                        <Array as="points">
                            <mxPoint x="610" y="90"/>
                        </Array>
                    </mxGeometry>
                </mxCell>
                <mxCell id="mvioNwK95yMqdUQ73LqQ-8" value="&lt;font data-font-src=&quot;https://fonts.googleapis.com/css?family=Sarabun&quot; face=&quot;Sarabun&quot;&gt;เท็จ&lt;/font&gt;" style="edgeLabel;html=1;align=center;verticalAlign=middle;resizable=0;points=[];" parent="mvioNwK95yMqdUQ73LqQ-6" vertex="1" connectable="0">
                    <mxGeometry x="-0.0019" y="-2" relative="1" as="geometry">
                        <mxPoint as="offset"/>
                    </mxGeometry>
                </mxCell>
                <mxCell id="mvioNwK95yMqdUQ73LqQ-9" value="&lt;font data-font-src=&quot;https://fonts.googleapis.com/css?family=Sarabun&quot; face=&quot;Sarabun&quot;&gt;ฟังก์ชัน/โมดูล&lt;/font&gt;" style="shape=process;whiteSpace=wrap;html=1;backgroundOutline=1;" parent="M7CGMbNuYNeq0SnUNNgH-6" vertex="1">
                    <mxGeometry x="25" y="180" width="120" height="30" as="geometry"/>
                </mxCell>
                <mxCell id="mvioNwK95yMqdUQ73LqQ-11" value="" style="endArrow=classic;html=1;rounded=0;" parent="M7CGMbNuYNeq0SnUNNgH-6" edge="1">
                    <mxGeometry width="50" height="50" relative="1" as="geometry">
                        <mxPoint x="84.70999999999998" y="150" as="sourcePoint"/>
                        <mxPoint x="85.20999999999998" y="180" as="targetPoint"/>
                    </mxGeometry>
                </mxCell>
                <mxCell id="mvioNwK95yMqdUQ73LqQ-12" value="" style="endArrow=classic;html=1;rounded=0;" parent="M7CGMbNuYNeq0SnUNNgH-6" edge="1">
                    <mxGeometry width="50" height="50" relative="1" as="geometry">
                        <mxPoint x="84.70999999999998" y="210" as="sourcePoint"/>
                        <mxPoint x="85.20999999999998" y="240" as="targetPoint"/>
                    </mxGeometry>
                </mxCell>
                <mxCell id="mvioNwK95yMqdUQ73LqQ-13" value="" style="strokeWidth=2;html=1;shape=mxgraph.flowchart.start_2;whiteSpace=wrap;" parent="M7CGMbNuYNeq0SnUNNgH-6" vertex="1">
                    <mxGeometry x="205" y="185" width="20" height="20" as="geometry"/>
                </mxCell>
                <mxCell id="mvioNwK95yMqdUQ73LqQ-16" value="" style="endArrow=classic;html=1;rounded=0;" parent="M7CGMbNuYNeq0SnUNNgH-6" edge="1">
                    <mxGeometry width="50" height="50" relative="1" as="geometry">
                        <mxPoint x="214.70999999999998" y="155" as="sourcePoint"/>
                        <mxPoint x="215.20999999999998" y="185" as="targetPoint"/>
                    </mxGeometry>
                </mxCell>
                <mxCell id="mvioNwK95yMqdUQ73LqQ-17" value="" style="endArrow=classic;html=1;rounded=0;entryX=0;entryY=0.5;entryDx=0;entryDy=0;entryPerimeter=0;" parent="M7CGMbNuYNeq0SnUNNgH-6" target="mvioNwK95yMqdUQ73LqQ-13" edge="1">
                    <mxGeometry width="50" height="50" relative="1" as="geometry">
                        <mxPoint x="189.99999999999997" y="155" as="sourcePoint"/>
                        <mxPoint x="190.49999999999997" y="185" as="targetPoint"/>
                        <Array as="points">
                            <mxPoint x="190" y="180"/>
                        </Array>
                    </mxGeometry>
                </mxCell>
                <mxCell id="mvioNwK95yMqdUQ73LqQ-18" value="" style="endArrow=classic;html=1;rounded=0;entryX=1;entryY=0.5;entryDx=0;entryDy=0;entryPerimeter=0;" parent="M7CGMbNuYNeq0SnUNNgH-6" target="mvioNwK95yMqdUQ73LqQ-13" edge="1">
                    <mxGeometry width="50" height="50" relative="1" as="geometry">
                        <mxPoint x="239.99999999999997" y="155" as="sourcePoint"/>
                        <mxPoint x="240.49999999999997" y="185" as="targetPoint"/>
                        <Array as="points">
                            <mxPoint x="240" y="180"/>
                        </Array>
                    </mxGeometry>
                </mxCell>
                <mxCell id="mvioNwK95yMqdUQ73LqQ-19" value="" style="endArrow=classic;html=1;rounded=0;" parent="M7CGMbNuYNeq0SnUNNgH-6" edge="1">
                    <mxGeometry width="50" height="50" relative="1" as="geometry">
                        <mxPoint x="214.70999999999998" y="205" as="sourcePoint"/>
                        <mxPoint x="215.20999999999998" y="235" as="targetPoint"/>
                    </mxGeometry>
                </mxCell>
                <mxCell id="mvioNwK95yMqdUQ73LqQ-20" value="&lt;font data-font-src=&quot;https://fonts.googleapis.com/css?family=Sarabun&quot; face=&quot;Sarabun&quot;&gt;ตัวเชื่อม&lt;/font&gt;" style="text;html=1;align=center;verticalAlign=middle;resizable=0;points=[];autosize=1;strokeColor=none;fillColor=none;" parent="M7CGMbNuYNeq0SnUNNgH-6" vertex="1">
                    <mxGeometry x="220" y="190" width="60" height="30" as="geometry"/>
                </mxCell>
                <mxCell id="mvioNwK95yMqdUQ73LqQ-25" value="" style="endArrow=classic;html=1;rounded=0;" parent="M7CGMbNuYNeq0SnUNNgH-6" edge="1">
                    <mxGeometry width="50" height="50" relative="1" as="geometry">
                        <mxPoint x="353.71" y="165" as="sourcePoint"/>
                        <mxPoint x="354.21" y="195" as="targetPoint"/>
                    </mxGeometry>
                </mxCell>
                <mxCell id="mvioNwK95yMqdUQ73LqQ-21" value="" style="verticalLabelPosition=bottom;verticalAlign=top;html=1;shape=offPageConnector;rounded=0;size=0.5;" parent="M7CGMbNuYNeq0SnUNNgH-6" vertex="1">
                    <mxGeometry x="339" y="195" width="30" height="30" as="geometry"/>
                </mxCell>
                <mxCell id="mvioNwK95yMqdUQ73LqQ-26" value="" style="endArrow=classic;html=1;rounded=0;" parent="M7CGMbNuYNeq0SnUNNgH-6" edge="1">
                    <mxGeometry width="50" height="50" relative="1" as="geometry">
                        <mxPoint x="405.71" y="195" as="sourcePoint"/>
                        <mxPoint x="406.21" y="225" as="targetPoint"/>
                    </mxGeometry>
                </mxCell>
                <mxCell id="mvioNwK95yMqdUQ73LqQ-27" value="" style="verticalLabelPosition=bottom;verticalAlign=top;html=1;shape=offPageConnector;rounded=0;size=0.5;" parent="M7CGMbNuYNeq0SnUNNgH-6" vertex="1">
                    <mxGeometry x="391" y="165" width="30" height="30" as="geometry"/>
                </mxCell>
                <mxCell id="mvioNwK95yMqdUQ73LqQ-28" value="หน้าต่อไป" style="text;html=1;align=center;verticalAlign=middle;resizable=0;points=[];autosize=1;strokeColor=none;fillColor=none;fontFamily=Sarabun;fontSource=https%3A%2F%2Ffonts.googleapis.com%2Fcss%3Ffamily%3DSarabun;" parent="M7CGMbNuYNeq0SnUNNgH-6" vertex="1">
                    <mxGeometry x="345" y="220" width="70" height="30" as="geometry"/>
                </mxCell>
                <mxCell id="mvioNwK95yMqdUQ73LqQ-29" value="ก" style="text;html=1;align=center;verticalAlign=middle;resizable=0;points=[];autosize=1;strokeColor=none;fillColor=none;fontFamily=Sarabun;fontSource=https%3A%2F%2Ffonts.googleapis.com%2Fcss%3Ffamily%3DSarabun;" parent="M7CGMbNuYNeq0SnUNNgH-6" vertex="1">
                    <mxGeometry x="339" y="190" width="30" height="30" as="geometry"/>
                </mxCell>
                <mxCell id="mvioNwK95yMqdUQ73LqQ-30" value="ก" style="text;html=1;align=center;verticalAlign=middle;resizable=0;points=[];autosize=1;strokeColor=none;fillColor=none;fontFamily=Sarabun;fontSource=https%3A%2F%2Ffonts.googleapis.com%2Fcss%3Ffamily%3DSarabun;" parent="M7CGMbNuYNeq0SnUNNgH-6" vertex="1">
                    <mxGeometry x="391" y="160" width="30" height="30" as="geometry"/>
                </mxCell>
                <mxCell id="mvioNwK95yMqdUQ73LqQ-32" value="แสดงผล/รับค่า" style="shape=parallelogram;perimeter=parallelogramPerimeter;whiteSpace=wrap;html=1;fixedSize=1;fontFamily=Sarabun;fontSource=https%3A%2F%2Ffonts.googleapis.com%2Fcss%3Ffamily%3DSarabun;" parent="M7CGMbNuYNeq0SnUNNgH-6" vertex="1">
                    <mxGeometry x="450" y="210" width="120" height="30" as="geometry"/>
                </mxCell>
                <mxCell id="mvioNwK95yMqdUQ73LqQ-33" value="" style="endArrow=classic;html=1;rounded=0;" parent="M7CGMbNuYNeq0SnUNNgH-6" edge="1">
                    <mxGeometry width="50" height="50" relative="1" as="geometry">
                        <mxPoint x="509.71" y="180" as="sourcePoint"/>
                        <mxPoint x="510.21" y="210" as="targetPoint"/>
                    </mxGeometry>
                </mxCell>
                <mxCell id="mvioNwK95yMqdUQ73LqQ-34" value="" style="endArrow=classic;html=1;rounded=0;" parent="M7CGMbNuYNeq0SnUNNgH-6" edge="1">
                    <mxGeometry width="50" height="50" relative="1" as="geometry">
                        <mxPoint x="509.71" y="240" as="sourcePoint"/>
                        <mxPoint x="510.21" y="270" as="targetPoint"/>
                    </mxGeometry>
                </mxCell>
                <mxCell id="mvioNwK95yMqdUQ73LqQ-36" value="F" style="swimlane;fontFamily=Sarabun;fontSource=https%3A%2F%2Ffonts.googleapis.com%2Fcss%3Ffamily%3DSarabun;" parent="WIyWlLk6GJQsqaUBKTNV-1" vertex="1">
                    <mxGeometry x="-764" y="630" width="1015" height="1780" as="geometry"/>
                </mxCell>
                <mxCell id="mvioNwK95yMqdUQ73LqQ-35" value="&lt;font data-font-src=&quot;https://fonts.googleapis.com/css?family=Sarabun&quot; face=&quot;Sarabun&quot;&gt;เริ่มต้น&lt;/font&gt;" style="ellipse;whiteSpace=wrap;html=1;" parent="mvioNwK95yMqdUQ73LqQ-36" vertex="1">
                    <mxGeometry x="255" y="40" width="130" height="30" as="geometry"/>
                </mxCell>
                <mxCell id="2" value="" style="endArrow=classic;html=1;rounded=0;" edge="1" parent="mvioNwK95yMqdUQ73LqQ-36">
                    <mxGeometry width="50" height="50" relative="1" as="geometry">
                        <mxPoint x="319.5" y="70" as="sourcePoint"/>
                        <mxPoint x="319.5" y="120" as="targetPoint"/>
                    </mxGeometry>
                </mxCell>
                <mxCell id="69" style="edgeStyle=none;html=1;entryX=0.5;entryY=0;entryDx=0;entryDy=0;fontFamily=Verdana;elbow=vertical;startArrow=none;" edge="1" parent="mvioNwK95yMqdUQ73LqQ-36" target="6">
                    <mxGeometry relative="1" as="geometry">
                        <mxPoint x="326" y="180" as="sourcePoint"/>
                        <Array as="points"/>
                    </mxGeometry>
                </mxCell>
                <mxCell id="3" value="&lt;div style=&quot;text-align: justify;&quot;&gt;สั่งน้ำและขนม&lt;/div&gt;" style="rounded=0;whiteSpace=wrap;html=1;fontFamily=Sarabun;fontSource=https%3A%2F%2Ffonts.googleapis.com%2Fcss%3Ffamily%3DSarabun;" vertex="1" parent="mvioNwK95yMqdUQ73LqQ-36">
                    <mxGeometry x="265" y="120" width="120" height="30" as="geometry"/>
                </mxCell>
                <mxCell id="6" value="สั่ง" style="rhombus;whiteSpace=wrap;html=1;fontFamily=Sarabun;rounded=0;fontSource=https%3A%2F%2Ffonts.googleapis.com%2Fcss%3Ffamily%3DSarabun;" vertex="1" parent="mvioNwK95yMqdUQ73LqQ-36">
                    <mxGeometry x="285" y="205" width="80" height="80" as="geometry"/>
                </mxCell>
                <mxCell id="54" value="" style="edgeStyle=none;html=1;fontFamily=Verdana;exitX=1;exitY=1;exitDx=0;exitDy=0;entryX=0.5;entryY=0;entryDx=0;entryDy=0;" edge="1" parent="mvioNwK95yMqdUQ73LqQ-36" source="6" target="53">
                    <mxGeometry relative="1" as="geometry">
                        <mxPoint x="500" y="390" as="sourcePoint"/>
                    </mxGeometry>
                </mxCell>
                <mxCell id="217" value="น้ำ" style="edgeLabel;html=1;align=center;verticalAlign=middle;resizable=0;points=[];fontFamily=Verdana;" vertex="1" connectable="0" parent="54">
                    <mxGeometry x="-0.1114" y="-1" relative="1" as="geometry">
                        <mxPoint as="offset"/>
                    </mxGeometry>
                </mxCell>
                <mxCell id="185" value="ขนม" style="edgeStyle=none;html=1;fontFamily=Verdana;elbow=vertical;exitX=0;exitY=1;exitDx=0;exitDy=0;entryX=0.5;entryY=0;entryDx=0;entryDy=0;" edge="1" parent="mvioNwK95yMqdUQ73LqQ-36" source="6" target="184">
                    <mxGeometry relative="1" as="geometry">
                        <mxPoint x="124.99999999999989" y="390" as="sourcePoint"/>
                        <mxPoint x="134" y="450" as="targetPoint"/>
                    </mxGeometry>
                </mxCell>
                <mxCell id="276" value="" style="edgeStyle=none;html=1;fontFamily=Verdana;elbow=vertical;exitX=0.5;exitY=1;exitDx=0;exitDy=0;" edge="1" parent="mvioNwK95yMqdUQ73LqQ-36" source="184" target="275">
                    <mxGeometry relative="1" as="geometry">
                        <mxPoint x="130" y="650" as="sourcePoint"/>
                    </mxGeometry>
                </mxCell>
                <mxCell id="273" style="edgeStyle=none;html=1;entryX=0.5;entryY=0;entryDx=0;entryDy=0;fontFamily=Verdana;elbow=vertical;" edge="1" parent="mvioNwK95yMqdUQ73LqQ-36" source="53" target="269">
                    <mxGeometry relative="1" as="geometry"/>
                </mxCell>
                <mxCell id="53" value="สั่งน้ำ" style="rhombus;whiteSpace=wrap;html=1;fontFamily=Sarabun;rounded=0;fontSource=https%3A%2F%2Ffonts.googleapis.com%2Fcss%3Ffamily%3DSarabun;" vertex="1" parent="mvioNwK95yMqdUQ73LqQ-36">
                    <mxGeometry x="460" y="460" width="80" height="80" as="geometry"/>
                </mxCell>
                <mxCell id="71" value="" style="edgeStyle=none;html=1;entryDx=0;entryDy=0;fontFamily=Verdana;elbow=vertical;endArrow=none;" edge="1" parent="mvioNwK95yMqdUQ73LqQ-36" source="3">
                    <mxGeometry relative="1" as="geometry">
                        <mxPoint x="-315" y="780" as="sourcePoint"/>
                        <mxPoint x="326" y="180" as="targetPoint"/>
                        <Array as="points"/>
                    </mxGeometry>
                </mxCell>
                <mxCell id="184" value="สั่งขนม" style="rhombus;whiteSpace=wrap;html=1;fontFamily=Sarabun;rounded=0;fontSource=https%3A%2F%2Ffonts.googleapis.com%2Fcss%3Ffamily%3DSarabun;" vertex="1" parent="mvioNwK95yMqdUQ73LqQ-36">
                    <mxGeometry x="85" y="459" width="80" height="80" as="geometry"/>
                </mxCell>
                <mxCell id="212" value="T" style="edgeStyle=none;html=1;fontFamily=Verdana;elbow=vertical;exitX=0.5;exitY=1;exitDx=0;exitDy=0;" edge="1" parent="mvioNwK95yMqdUQ73LqQ-36" source="290" target="211">
                    <mxGeometry relative="1" as="geometry">
                        <mxPoint x="305" y="1440" as="sourcePoint"/>
                    </mxGeometry>
                </mxCell>
                <mxCell id="257" value="เงินที่จ่ายมากกว่าราคาสินค้า" style="edgeStyle=none;html=1;fontFamily=Verdana;elbow=vertical;" edge="1" parent="mvioNwK95yMqdUQ73LqQ-36" source="211">
                    <mxGeometry relative="1" as="geometry">
                        <mxPoint x="540" y="1270" as="targetPoint"/>
                    </mxGeometry>
                </mxCell>
                <mxCell id="211" value="จ่ายเงิน&lt;br&gt;1 5 10 20 100" style="rhombus;whiteSpace=wrap;html=1;fontFamily=Sarabun;rounded=0;fontSource=https%3A%2F%2Ffonts.googleapis.com%2Fcss%3Ffamily%3DSarabun;" vertex="1" parent="mvioNwK95yMqdUQ73LqQ-36">
                    <mxGeometry x="252.5" y="1230" width="105" height="80" as="geometry"/>
                </mxCell>
                <mxCell id="218" value="F" style="edgeStyle=none;html=1;fontFamily=Verdana;elbow=vertical;fillColor=#ffcd28;gradientColor=#ffa500;strokeColor=#d79b00;exitX=1;exitY=0.5;exitDx=0;exitDy=0;" edge="1" parent="mvioNwK95yMqdUQ73LqQ-36" source="53">
                    <mxGeometry relative="1" as="geometry">
                        <mxPoint x="325" y="180" as="targetPoint"/>
                        <Array as="points">
                            <mxPoint x="544" y="180"/>
                        </Array>
                    </mxGeometry>
                </mxCell>
                <mxCell id="219" value="F" style="edgeStyle=none;html=1;fontFamily=Verdana;elbow=vertical;fillColor=#ffcd28;gradientColor=#ffa500;strokeColor=#d79b00;" edge="1" parent="mvioNwK95yMqdUQ73LqQ-36">
                    <mxGeometry relative="1" as="geometry">
                        <mxPoint x="330" y="180" as="targetPoint"/>
                        <mxPoint x="84" y="499" as="sourcePoint"/>
                        <Array as="points">
                            <mxPoint x="84" y="180"/>
                        </Array>
                    </mxGeometry>
                </mxCell>
                <mxCell id="242" value="" style="shape=waypoint;sketch=0;size=6;pointerEvents=1;points=[];fillColor=default;resizable=0;rotatable=0;perimeter=centerPerimeter;snapToPoint=1;fontFamily=Sarabun;rounded=0;fontSource=https%3A%2F%2Ffonts.googleapis.com%2Fcss%3Ffamily%3DSarabun;" vertex="1" parent="mvioNwK95yMqdUQ73LqQ-36">
                    <mxGeometry x="295" y="840" width="20" height="20" as="geometry"/>
                </mxCell>
                <mxCell id="285" style="edgeStyle=none;html=1;fontFamily=Verdana;elbow=vertical;" edge="1" parent="mvioNwK95yMqdUQ73LqQ-36" source="269" target="284">
                    <mxGeometry relative="1" as="geometry"/>
                </mxCell>
                <mxCell id="269" value="ลาเต้เย็น 20&lt;br&gt;กาแฟอเมริกาโนร้อน 20&lt;br&gt;น้ำเล่า 10" style="shape=parallelogram;perimeter=parallelogramPerimeter;whiteSpace=wrap;html=1;fixedSize=1;fontFamily=Sarabun;rounded=0;fontSource=https%3A%2F%2Ffonts.googleapis.com%2Fcss%3Ffamily%3DSarabun;" vertex="1" parent="mvioNwK95yMqdUQ73LqQ-36">
                    <mxGeometry x="418" y="580" width="164" height="70" as="geometry"/>
                </mxCell>
                <mxCell id="289" value="T" style="edgeStyle=none;html=1;fontFamily=Verdana;elbow=vertical;exitX=0.5;exitY=1;exitDx=0;exitDy=0;entryX=0.5;entryY=0;entryDx=0;entryDy=0;" edge="1" parent="mvioNwK95yMqdUQ73LqQ-36" source="300" target="281">
                    <mxGeometry relative="1" as="geometry">
                        <mxPoint x="304" y="840" as="sourcePoint"/>
                        <mxPoint x="314" y="880" as="targetPoint"/>
                    </mxGeometry>
                </mxCell>
                <mxCell id="286" style="edgeStyle=none;html=1;fontFamily=Verdana;elbow=vertical;" edge="1" parent="mvioNwK95yMqdUQ73LqQ-36" source="275" target="284">
                    <mxGeometry relative="1" as="geometry"/>
                </mxCell>
                <mxCell id="275" value="ขนมชั้น 10&amp;nbsp;&lt;br&gt;ฝอยทอง 10&amp;nbsp;&lt;br&gt;ลำไยอบแห้ง 10" style="shape=parallelogram;perimeter=parallelogramPerimeter;whiteSpace=wrap;html=1;fixedSize=1;fontFamily=Sarabun;rounded=0;fontSource=https%3A%2F%2Ffonts.googleapis.com%2Fcss%3Ffamily%3DSarabun;" vertex="1" parent="mvioNwK95yMqdUQ73LqQ-36">
                    <mxGeometry x="65" y="580" width="120" height="60" as="geometry"/>
                </mxCell>
                <mxCell id="281" value="ตะกร้าสินค้า&lt;br&gt;แสดงยอดสินค้า" style="shape=parallelogram;perimeter=parallelogramPerimeter;whiteSpace=wrap;html=1;fixedSize=1;fontFamily=Sarabun;sketch=0;rounded=0;fontSource=https%3A%2F%2Ffonts.googleapis.com%2Fcss%3Ffamily%3DSarabun;" vertex="1" parent="mvioNwK95yMqdUQ73LqQ-36">
                    <mxGeometry x="245" y="900" width="120" height="60" as="geometry"/>
                </mxCell>
                <mxCell id="287" value="" style="edgeStyle=none;html=1;fontFamily=Verdana;elbow=vertical;entryX=0.5;entryY=0;entryDx=0;entryDy=0;" edge="1" parent="mvioNwK95yMqdUQ73LqQ-36" source="284" target="300">
                    <mxGeometry relative="1" as="geometry">
                        <mxPoint x="305" y="640" as="targetPoint"/>
                    </mxGeometry>
                </mxCell>
                <mxCell id="284" value="" style="shape=waypoint;sketch=0;size=6;pointerEvents=1;points=[];fillColor=default;resizable=0;rotatable=0;perimeter=centerPerimeter;snapToPoint=1;fontFamily=Sarabun;rounded=0;fontSource=https%3A%2F%2Ffonts.googleapis.com%2Fcss%3Ffamily%3DSarabun;" vertex="1" parent="mvioNwK95yMqdUQ73LqQ-36">
                    <mxGeometry x="295" y="600" width="20" height="20" as="geometry"/>
                </mxCell>
                <mxCell id="290" value="ยืนยันการสั่งสินค้า" style="rhombus;whiteSpace=wrap;html=1;fontFamily=Sarabun;rounded=0;fontSource=https%3A%2F%2Ffonts.googleapis.com%2Fcss%3Ffamily%3DSarabun;" vertex="1" parent="mvioNwK95yMqdUQ73LqQ-36">
                    <mxGeometry x="210" y="1100" width="190" height="51" as="geometry"/>
                </mxCell>
                <mxCell id="300" value="เลือกจำนวนสินค้า" style="rhombus;whiteSpace=wrap;html=1;fontFamily=Sarabun;rounded=0;fontSource=https%3A%2F%2Ffonts.googleapis.com%2Fcss%3Ffamily%3DSarabun;" vertex="1" parent="mvioNwK95yMqdUQ73LqQ-36">
                    <mxGeometry x="265" y="710" width="80" height="80" as="geometry"/>
                </mxCell>
                <mxCell id="415" style="edgeStyle=none;html=1;entryX=0.5;entryY=0;entryDx=0;entryDy=0;fontFamily=Verdana;fontSize=8;elbow=vertical;" edge="1" parent="mvioNwK95yMqdUQ73LqQ-36" source="306" target="361">
                    <mxGeometry relative="1" as="geometry"/>
                </mxCell>
                <mxCell id="306" value="เงินที่เข้ามาลบกับราคาสินค้า" style="whiteSpace=wrap;html=1;fontFamily=Sarabun;rounded=0;fontSource=https%3A%2F%2Ffonts.googleapis.com%2Fcss%3Ffamily%3DSarabun;" vertex="1" parent="mvioNwK95yMqdUQ73LqQ-36">
                    <mxGeometry x="540" y="1240" width="120" height="60" as="geometry"/>
                </mxCell>
                <mxCell id="310" value="แจ้งในระบบให้จ่ายเงินเพิ่ม" style="shape=parallelogram;perimeter=parallelogramPerimeter;whiteSpace=wrap;html=1;fixedSize=1;fontFamily=Sarabun;rounded=0;fontSource=https%3A%2F%2Ffonts.googleapis.com%2Fcss%3Ffamily%3DSarabun;" vertex="1" parent="mvioNwK95yMqdUQ73LqQ-36">
                    <mxGeometry x="-76" y="1230" width="120" height="60" as="geometry"/>
                </mxCell>
                <mxCell id="261" value="&lt;span style=&quot;color: rgb(240, 240, 240); font-family: Verdana; font-size: 11px; font-style: normal; font-variant-ligatures: normal; font-variant-caps: normal; font-weight: 400; letter-spacing: normal; orphans: 2; text-align: center; text-indent: 0px; text-transform: none; widows: 2; word-spacing: 0px; -webkit-text-stroke-width: 0px; background-color: rgb(24, 20, 29); text-decoration-thickness: initial; text-decoration-style: initial; text-decoration-color: initial; float: none; display: inline !important;&quot;&gt;เงินที่จ่ายน้อยกว่าราคาสินค้า&lt;/span&gt;" style="edgeStyle=none;html=1;fontFamily=Verdana;elbow=vertical;entryX=1;entryY=0.75;entryDx=0;entryDy=0;" edge="1" parent="mvioNwK95yMqdUQ73LqQ-36" source="211" target="310">
                    <mxGeometry relative="1" as="geometry">
                        <mxPoint x="31.913022248641255" y="1270" as="targetPoint"/>
                    </mxGeometry>
                </mxCell>
                <mxCell id="340" value="" style="edgeStyle=none;html=1;fontFamily=Verdana;fontSize=8;elbow=vertical;" edge="1" parent="mvioNwK95yMqdUQ73LqQ-36" target="346">
                    <mxGeometry relative="1" as="geometry">
                        <mxPoint x="921.5" y="1030" as="sourcePoint"/>
                        <mxPoint x="945.5" y="1100" as="targetPoint"/>
                    </mxGeometry>
                </mxCell>
                <mxCell id="341" value="เงินไม่พอ" style="edgeLabel;html=1;align=center;verticalAlign=middle;resizable=0;points=[];fontSize=8;fontFamily=Verdana;" vertex="1" connectable="0" parent="340">
                    <mxGeometry x="0.1676" relative="1" as="geometry">
                        <mxPoint as="offset"/>
                    </mxGeometry>
                </mxCell>
                <mxCell id="317" value="ทอนเงินพร้อมรับสินค้า" style="shape=parallelogram;perimeter=parallelogramPerimeter;whiteSpace=wrap;html=1;fixedSize=1;fontFamily=Sarabun;rounded=0;fontSource=https%3A%2F%2Ffonts.googleapis.com%2Fcss%3Ffamily%3DSarabun;" vertex="1" parent="mvioNwK95yMqdUQ73LqQ-36">
                    <mxGeometry x="714" y="1140" width="140" height="60" as="geometry"/>
                </mxCell>
                <mxCell id="350" value="" style="edgeStyle=none;html=1;fontFamily=Verdana;fontSize=8;elbow=vertical;" edge="1" parent="mvioNwK95yMqdUQ73LqQ-36" source="346" target="349">
                    <mxGeometry relative="1" as="geometry"/>
                </mxCell>
                <mxCell id="346" value="แจ้งเงินไม่พอ" style="shape=parallelogram;perimeter=parallelogramPerimeter;whiteSpace=wrap;html=1;fixedSize=1;fontFamily=Sarabun;rounded=0;fontSource=https%3A%2F%2Ffonts.googleapis.com%2Fcss%3Ffamily%3DSarabun;" vertex="1" parent="mvioNwK95yMqdUQ73LqQ-36">
                    <mxGeometry x="986.5" y="1000" width="120" height="60" as="geometry"/>
                </mxCell>
                <mxCell id="352" value="" style="edgeStyle=none;html=1;fontFamily=Verdana;fontSize=8;elbow=vertical;" edge="1" parent="mvioNwK95yMqdUQ73LqQ-36" source="349" target="351">
                    <mxGeometry relative="1" as="geometry"/>
                </mxCell>
                <mxCell id="349" value="จะรับเงินคืนหรือเลือกสินค้าใหม่" style="rhombus;whiteSpace=wrap;html=1;fontFamily=Sarabun;rounded=0;fontSource=https%3A%2F%2Ffonts.googleapis.com%2Fcss%3Ffamily%3DSarabun;" vertex="1" parent="mvioNwK95yMqdUQ73LqQ-36">
                    <mxGeometry x="1006.5" y="1080" width="80" height="80" as="geometry"/>
                </mxCell>
                <mxCell id="351" value="รับเงินคืน" style="shape=parallelogram;perimeter=parallelogramPerimeter;whiteSpace=wrap;html=1;fixedSize=1;fontFamily=Sarabun;rounded=0;fontSource=https%3A%2F%2Ffonts.googleapis.com%2Fcss%3Ffamily%3DSarabun;" vertex="1" parent="mvioNwK95yMqdUQ73LqQ-36">
                    <mxGeometry x="986.5" y="1220" width="120" height="60" as="geometry"/>
                </mxCell>
                <mxCell id="mvioNwK95yMqdUQ73LqQ-69" value="&lt;font face=&quot;Sarabun&quot;&gt;สิ้นสุด&lt;/font&gt;" style="ellipse;whiteSpace=wrap;html=1;" parent="mvioNwK95yMqdUQ73LqQ-36" vertex="1">
                    <mxGeometry x="719" y="1260" width="130" height="30" as="geometry"/>
                </mxCell>
                <mxCell id="321" style="edgeStyle=none;html=1;entryX=0.5;entryY=0;entryDx=0;entryDy=0;fontFamily=Verdana;elbow=vertical;" edge="1" parent="mvioNwK95yMqdUQ73LqQ-36" source="317" target="mvioNwK95yMqdUQ73LqQ-69">
                    <mxGeometry relative="1" as="geometry"/>
                </mxCell>
                <mxCell id="342" style="edgeStyle=none;html=1;exitX=0;exitY=0.5;exitDx=0;exitDy=0;fontFamily=Verdana;fontSize=8;elbow=vertical;" edge="1" parent="mvioNwK95yMqdUQ73LqQ-36" target="317">
                    <mxGeometry relative="1" as="geometry">
                        <mxPoint x="755.5" y="1030.0697674418607" as="targetPoint"/>
                        <mxPoint x="841.5" y="1030" as="sourcePoint"/>
                        <Array as="points">
                            <mxPoint x="785.5" y="1030"/>
                        </Array>
                    </mxGeometry>
                </mxCell>
                <mxCell id="343" value="เงินพอ" style="edgeLabel;html=1;align=center;verticalAlign=middle;resizable=0;points=[];fontSize=8;fontFamily=Verdana;" vertex="1" connectable="0" parent="342">
                    <mxGeometry x="-0.1519" y="2" relative="1" as="geometry">
                        <mxPoint as="offset"/>
                    </mxGeometry>
                </mxCell>
                <mxCell id="355" value="&lt;div style=&quot;&quot;&gt;&lt;span style=&quot;font-size: 8px; background-color: initial;&quot;&gt;หลักหน่วย&lt;/span&gt;&lt;/div&gt;&lt;div style=&quot;font-size: 8px;&quot;&gt;&lt;span style=&quot;background-color: initial;&quot;&gt;หลักหน่วยที่ไม่ใช่เลข 5 ทอนเหรียญ 1 บาท&lt;/span&gt;&lt;/div&gt;&lt;span style=&quot;font-size: 8px;&quot;&gt;&lt;div style=&quot;&quot;&gt;&lt;span style=&quot;background-color: initial;&quot;&gt;=5 ทอนเหรียญ 5&amp;nbsp;&amp;nbsp;&lt;/span&gt;&lt;/div&gt;&lt;/span&gt;&lt;span style=&quot;font-size: 8px;&quot;&gt;&lt;div style=&quot;&quot;&gt;&lt;span style=&quot;background-color: initial;&quot;&gt;หลักสิบ&lt;/span&gt;&lt;/div&gt;&lt;/span&gt;&lt;span style=&quot;font-size: 8px;&quot;&gt;&lt;div style=&quot;&quot;&gt;&lt;span style=&quot;background-color: initial;&quot;&gt;เลขคู่ทอนใบ 20 เลขคี่ ใบ 20 กับเหรียญ 10&lt;/span&gt;&lt;/div&gt;&lt;/span&gt;&lt;span style=&quot;font-size: 8px;&quot;&gt;&lt;div style=&quot;&quot;&gt;&lt;span style=&quot;background-color: initial;&quot;&gt;หลักร้อย&amp;nbsp;&amp;nbsp;&lt;/span&gt;&lt;/div&gt;&lt;/span&gt;&lt;span style=&quot;font-size: 8px;&quot;&gt;&lt;div style=&quot;&quot;&gt;&lt;span style=&quot;background-color: initial;&quot;&gt;ทอนเป็นใบ 100&amp;nbsp;&lt;/span&gt;&lt;/div&gt;&lt;/span&gt;" style="rhombus;whiteSpace=wrap;html=1;fontFamily=Sarabun;rounded=0;fontSource=https%3A%2F%2Ffonts.googleapis.com%2Fcss%3Ffamily%3DSarabun;align=center;" vertex="1" parent="mvioNwK95yMqdUQ73LqQ-36">
                    <mxGeometry x="764" y="1320" width="210" height="90" as="geometry"/>
                </mxCell>
                <mxCell id="433" style="edgeStyle=none;html=1;entryX=1;entryY=0.5;entryDx=0;entryDy=0;fontFamily=Verdana;fontSize=8;elbow=vertical;" edge="1" parent="mvioNwK95yMqdUQ73LqQ-36" source="361" target="364">
                    <mxGeometry relative="1" as="geometry"/>
                </mxCell>
                <mxCell id="361" value="ทอน &amp;gt;=100" style="rhombus;whiteSpace=wrap;html=1;fontFamily=Sarabun;rounded=0;fontSource=https%3A%2F%2Ffonts.googleapis.com%2Fcss%3Ffamily%3DSarabun;fontSize=8;" vertex="1" parent="mvioNwK95yMqdUQ73LqQ-36">
                    <mxGeometry x="560" y="1360" width="80" height="80" as="geometry"/>
                </mxCell>
                <mxCell id="434" value="" style="edgeStyle=none;html=1;fontFamily=Verdana;fontSize=8;elbow=vertical;" edge="1" parent="mvioNwK95yMqdUQ73LqQ-36" source="364" target="363">
                    <mxGeometry relative="1" as="geometry"/>
                </mxCell>
                <mxCell id="364" value="ทอน &amp;gt;=50" style="rhombus;whiteSpace=wrap;html=1;fontFamily=Sarabun;rounded=0;fontSource=https%3A%2F%2Ffonts.googleapis.com%2Fcss%3Ffamily%3DSarabun;fontSize=8;" vertex="1" parent="mvioNwK95yMqdUQ73LqQ-36">
                    <mxGeometry x="444" y="1360" width="80" height="80" as="geometry"/>
                </mxCell>
                <mxCell id="435" value="" style="edgeStyle=none;html=1;fontFamily=Verdana;fontSize=8;elbow=vertical;" edge="1" parent="mvioNwK95yMqdUQ73LqQ-36" source="363" target="365">
                    <mxGeometry relative="1" as="geometry"/>
                </mxCell>
                <mxCell id="363" value="ทอน &amp;gt;=20" style="rhombus;whiteSpace=wrap;html=1;fontFamily=Sarabun;rounded=0;fontSource=https%3A%2F%2Ffonts.googleapis.com%2Fcss%3Ffamily%3DSarabun;fontSize=8;" vertex="1" parent="mvioNwK95yMqdUQ73LqQ-36">
                    <mxGeometry x="315" y="1360" width="80" height="80" as="geometry"/>
                </mxCell>
                <mxCell id="436" value="" style="edgeStyle=none;html=1;fontFamily=Verdana;fontSize=8;elbow=vertical;" edge="1" parent="mvioNwK95yMqdUQ73LqQ-36" source="365" target="366">
                    <mxGeometry relative="1" as="geometry"/>
                </mxCell>
                <mxCell id="365" value="ทอน &amp;gt;=10" style="rhombus;whiteSpace=wrap;html=1;fontFamily=Sarabun;rounded=0;fontSource=https%3A%2F%2Ffonts.googleapis.com%2Fcss%3Ffamily%3DSarabun;fontSize=8;" vertex="1" parent="mvioNwK95yMqdUQ73LqQ-36">
                    <mxGeometry x="185" y="1360" width="80" height="80" as="geometry"/>
                </mxCell>
                <mxCell id="366" value="ทอน &amp;gt;=5" style="rhombus;whiteSpace=wrap;html=1;fontFamily=Sarabun;rounded=0;fontSource=https%3A%2F%2Ffonts.googleapis.com%2Fcss%3Ffamily%3DSarabun;fontSize=8;" vertex="1" parent="mvioNwK95yMqdUQ73LqQ-36">
                    <mxGeometry x="54" y="1360" width="80" height="80" as="geometry"/>
                </mxCell>
                <mxCell id="411" value="ทอนใบ 100&lt;br&gt;-ใบ 100 ในเครื่อง" style="whiteSpace=wrap;html=1;fontSize=8;fontFamily=Sarabun;rounded=0;fontSource=https%3A%2F%2Ffonts.googleapis.com%2Fcss%3Ffamily%3DSarabun;" vertex="1" parent="mvioNwK95yMqdUQ73LqQ-36">
                    <mxGeometry x="550" y="1560" width="90" height="40" as="geometry"/>
                </mxCell>
                <mxCell id="440" value="ทอนใบ 100&lt;br&gt;-ใบ 100 ในเครื่อง" style="whiteSpace=wrap;html=1;fontSize=8;fontFamily=Sarabun;rounded=0;fontSource=https%3A%2F%2Ffonts.googleapis.com%2Fcss%3Ffamily%3DSarabun;" vertex="1" parent="mvioNwK95yMqdUQ73LqQ-36">
                    <mxGeometry x="434" y="1560" width="90" height="40" as="geometry"/>
                </mxCell>
                <mxCell id="439" value="ทอนใบ 100&lt;br&gt;-ใบ 100 ในเครื่อง" style="whiteSpace=wrap;html=1;fontSize=8;fontFamily=Sarabun;rounded=0;fontSource=https%3A%2F%2Ffonts.googleapis.com%2Fcss%3Ffamily%3DSarabun;" vertex="1" parent="mvioNwK95yMqdUQ73LqQ-36">
                    <mxGeometry x="305" y="1560" width="90" height="40" as="geometry"/>
                </mxCell>
                <mxCell id="438" value="ทอนใบ 100&lt;br&gt;-ใบ 100 ในเครื่อง" style="whiteSpace=wrap;html=1;fontSize=8;fontFamily=Sarabun;rounded=0;fontSource=https%3A%2F%2Ffonts.googleapis.com%2Fcss%3Ffamily%3DSarabun;" vertex="1" parent="mvioNwK95yMqdUQ73LqQ-36">
                    <mxGeometry x="175" y="1560" width="90" height="40" as="geometry"/>
                </mxCell>
                <mxCell id="437" value="ทอนใบ 100&lt;br&gt;-ใบ 100 ในเครื่อง" style="whiteSpace=wrap;html=1;fontSize=8;fontFamily=Sarabun;rounded=0;fontSource=https%3A%2F%2Ffonts.googleapis.com%2Fcss%3Ffamily%3DSarabun;" vertex="1" parent="mvioNwK95yMqdUQ73LqQ-36">
                    <mxGeometry x="44" y="1560" width="90" height="40" as="geometry"/>
                </mxCell>
                <mxCell id="mvioNwK95yMqdUQ73LqQ-70" value="&lt;font data-font-src=&quot;https://fonts.googleapis.com/css?family=Sarabun&quot; face=&quot;Sarabun&quot;&gt;โจทย์ปัญหา&lt;/font&gt;" style="swimlane;whiteSpace=wrap;html=1;" parent="WIyWlLk6GJQsqaUBKTNV-1" vertex="1">
                    <mxGeometry x="-720" y="320" width="645" height="310" as="geometry"/>
                </mxCell>
                <mxCell id="mvioNwK95yMqdUQ73LqQ-71" value="&lt;p style=&quot;line-height: 120%;&quot;&gt;&lt;font data-font-src=&quot;https://fonts.googleapis.com/css?family=Sarabun&quot; face=&quot;Sarabun&quot; style=&quot;font-size: 14px;&quot;&gt;&lt;b&gt;&lt;u&gt;โจทย์&lt;/u&gt;&lt;/b&gt; จงเขียน Flowchart เพื่อแสดงขั้นตอนการทำงาน ของเครื่องขายน้ำอัตโนมัติ โดยเครื่องมีการทำงานดังนี้&lt;br&gt;&amp;nbsp; &amp;nbsp; - เครื่องมีสินค้าประเภท &quot;เครื่องดื่ม&quot; อยู่ 3 อย่างคือ กาแฟอเมริกาโน่ร้อน , ลาเต้เย็น , น้ำเปล่า&lt;br&gt;&amp;nbsp; &amp;nbsp; - เครื่องมีสินค้าประเภท &quot;ขนม&quot; อยู่ 3 อย่างคือ ขนมชั้น, ฝอยทอง, ลำไยอบแห้ง&lt;br&gt;&amp;nbsp; &amp;nbsp; - เครื่องสามารถทอนเงินลูกค้าได้ทั้ง เหรียญ และ ธนบัตร (โดยจะต้องเลือกทอนเงินด้วยธนบัตรใหญ่ก่อน)&lt;br&gt;&lt;/font&gt;&lt;span style=&quot;font-family: Sarabun; background-color: initial;&quot;&gt;&amp;nbsp; &amp;nbsp; &amp;nbsp; &amp;nbsp;กรณีที่มีเงินทอนไม่พอ ให้แจ้งลูกค้าก่อนซื้อสินค้าว่า &quot;เครื่องไม่มีเงิน&quot;&lt;br&gt;&amp;nbsp; &amp;nbsp; -&amp;nbsp; เครื่องสามารถแสดงจำนวนสินค้าคงเหลือ ราคาสินค้า จำนวนสินค้าที่ลูกค้าสั่ง และรวมราคาที่ลูกค้าต้องจ่าย&lt;br&gt;&lt;/span&gt;&lt;span style=&quot;font-family: Sarabun; background-color: initial;&quot;&gt;&lt;b&gt;&lt;u&gt;เหตุการณ์&lt;/u&gt;&lt;/b&gt;&lt;br&gt;&amp;nbsp; &amp;nbsp; &lt;b&gt;ลูกค้า&lt;/b&gt;สามารถเลือกสินค้ากี่ชิ้นก็ได้ จนกว่าลูกค้าจะพอใจ เมื่อพอใจแล้ว สามารถกดปุ่ม &quot;ตกลง&quot; เพื่อคำนวณ&lt;br&gt;ยอดเงินทั้งหมดที่ลูกค้าต้องชำระ และลูกค้าต้องใส่เงินไปตามจำนวน(หรือมากกว่า) เพื่อทำการชำระสินค้า&lt;br&gt;และตู้ก็จะทอนเงินให้ลูกค้า พร้อมส่งสินค้าให้ลูกค้า&lt;br&gt;&amp;nbsp; &amp;nbsp; &lt;b&gt;แอ็ดมิน&lt;/b&gt;สามารถได้รับการแจ้งเตือนทุกครั้งที่มีลูกค้ากดซื้อสินค้าหน้าตู้ โดยจะมีข้อมูลสรุปกำไรทั้งหมด จำนวน&lt;br&gt;เงินทอนคงเหลือ(ว่าเหลือแต่ละเหรียญและธนบัตรอยู่ทั้งหมดอย่างละเท่าไหร่)&lt;/span&gt;&lt;/p&gt;" style="text;html=1;align=left;verticalAlign=top;resizable=0;points=[];autosize=1;strokeColor=none;fillColor=none;fontSize=14;" parent="mvioNwK95yMqdUQ73LqQ-70" vertex="1">
                    <mxGeometry x="15" y="20" width="630" height="260" as="geometry"/>
                </mxCell>
                <mxCell id="294" value="F" style="edgeStyle=none;html=1;fontFamily=Verdana;elbow=vertical;fillColor=#ffcd28;gradientColor=#ffa500;strokeColor=#d79b00;exitX=0;exitY=0.5;exitDx=0;exitDy=0;" edge="1" parent="WIyWlLk6GJQsqaUBKTNV-1" source="290">
                    <mxGeometry relative="1" as="geometry">
                        <mxPoint x="-459" y="1300" as="targetPoint"/>
                        <mxPoint x="-550" y="1530" as="sourcePoint"/>
                        <Array as="points">
                            <mxPoint x="-554" y="1300"/>
                        </Array>
                    </mxGeometry>
                </mxCell>
                <mxCell id="302" style="edgeStyle=none;html=1;fontFamily=Verdana;elbow=vertical;fillColor=#ffcd28;gradientColor=#ffa500;strokeColor=#d79b00;" edge="1" parent="WIyWlLk6GJQsqaUBKTNV-1" source="300">
                    <mxGeometry relative="1" as="geometry">
                        <mxPoint x="-440" y="810" as="targetPoint"/>
                        <Array as="points">
                            <mxPoint x="-160" y="1380"/>
                            <mxPoint x="-160" y="810"/>
                        </Array>
                    </mxGeometry>
                </mxCell>
                <mxCell id="303" value="สินค้าหมด หรือ อยากเปลี่ยนสินค้า" style="edgeLabel;html=1;align=center;verticalAlign=middle;resizable=0;points=[];fontFamily=Verdana;" vertex="1" connectable="0" parent="302">
                    <mxGeometry x="-0.065" y="1" relative="1" as="geometry">
                        <mxPoint x="-143" y="240" as="offset"/>
                    </mxGeometry>
                </mxCell>
                <mxCell id="305" style="edgeStyle=none;html=1;fontFamily=Verdana;elbow=vertical;" edge="1" parent="WIyWlLk6GJQsqaUBKTNV-1" source="281">
                    <mxGeometry relative="1" as="geometry">
                        <mxPoint x="-459" y="1730" as="targetPoint"/>
                    </mxGeometry>
                </mxCell>
                <mxCell id="312" style="edgeStyle=none;html=1;fontFamily=Verdana;elbow=vertical;fillColor=#ffcd28;gradientColor=#ffa500;strokeColor=#d79b00;" edge="1" parent="WIyWlLk6GJQsqaUBKTNV-1" source="310">
                    <mxGeometry relative="1" as="geometry">
                        <mxPoint x="-460" y="1840" as="targetPoint"/>
                        <Array as="points">
                            <mxPoint x="-780" y="1840"/>
                        </Array>
                    </mxGeometry>
                </mxCell>
                <mxCell id="353" style="edgeStyle=none;html=1;fontFamily=Verdana;fontSize=8;elbow=vertical;fillColor=#f8cecc;gradientColor=#ea6b66;strokeColor=#b85450;" edge="1" parent="WIyWlLk6GJQsqaUBKTNV-1" source="349">
                    <mxGeometry relative="1" as="geometry">
                        <mxPoint x="-170" y="810" as="targetPoint"/>
                        <Array as="points">
                            <mxPoint x="460" y="1650"/>
                            <mxPoint x="80" y="810"/>
                        </Array>
                    </mxGeometry>
                </mxCell>
                <mxCell id="367" value="ทอน &amp;lt;5" style="rhombus;whiteSpace=wrap;html=1;fontFamily=Sarabun;rounded=0;fontSource=https%3A%2F%2Ffonts.googleapis.com%2Fcss%3Ffamily%3DSarabun;fontSize=8;" vertex="1" parent="WIyWlLk6GJQsqaUBKTNV-1">
                    <mxGeometry x="-844" y="1990" width="80" height="80" as="geometry"/>
                </mxCell>
                <mxCell id="441" value="ทอนใบ 100&lt;br&gt;-ใบ 100 ในเครื่อง" style="whiteSpace=wrap;html=1;fontSize=8;fontFamily=Sarabun;rounded=0;fontSource=https%3A%2F%2Ffonts.googleapis.com%2Fcss%3Ffamily%3DSarabun;" vertex="1" parent="WIyWlLk6GJQsqaUBKTNV-1">
                    <mxGeometry x="-849" y="2190" width="90" height="40" as="geometry"/>
                </mxCell>
                <mxCell id="448" value="" style="edgeStyle=none;html=1;fontFamily=Verdana;fontSize=8;elbow=vertical;" edge="1" parent="WIyWlLk6GJQsqaUBKTNV-1" source="366" target="367">
                    <mxGeometry relative="1" as="geometry"/>
                </mxCell>
            </root>
        </mxGraphModel>
    </diagram>
</mxfile>